<?xml version="1.0" standalone="no"?>
<!DOCTYPE svg PUBLIC "-//W3C//DTD SVG 20010904//EN"
 "http://www.w3.org/TR/2001/REC-SVG-20010904/DTD/svg10.dtd">
<svg version="1.0" xmlns="http://www.w3.org/2000/svg"
 width="240.000000pt" height="240.000000pt" viewBox="0 0 240.000000 240.000000"
 preserveAspectRatio="xMidYMid meet">
<metadata>
Created by potrace 1.16, written by Peter Selinger 2001-2019
</metadata>
<g transform="translate(0.000000,240.000000) scale(0.100000,-0.100000)"
fill="#000000" stroke="none">
<path d="M0 1200 l0 -1201 138 2 137 1 19 40 c32 68 110 111 240 133 l39 6 -6
-61 c-4 -50 -11 -68 -33 -91 -33 -34 -20 -38 17 -6 24 22 26 31 32 143 6 112
31 252 57 318 7 20 8 32 0 40 -7 7 -10 5 -10 -7 0 -9 -4 -17 -10 -17 -18 0
-10 53 12 87 27 39 65 58 135 67 59 7 73 -4 43 -34 -30 -30 -27 -83 8 -120 20
-23 41 -33 83 -40 l56 -10 136 75 c140 77 194 97 138 49 -17 -14 -45 -55 -62
-91 -40 -84 -38 -149 6 -207 24 -31 26 -39 14 -47 -8 -5 -44 -28 -81 -51 -38
-24 -68 -48 -68 -55 0 -7 2 -13 4 -13 3 0 45 25 95 55 l90 56 39 -28 38 -28
-14 -35 c-8 -19 -23 -56 -33 -82 l-18 -47 579 -1 580 0 0 40 0 40 -392 1
c-216 0 -413 4 -438 8 -25 5 -35 9 -23 10 12 0 25 6 28 12 4 6 13 8 20 6 18
-8 150 128 134 138 -8 6 -10 4 -4 -6 5 -8 -1 -5 -13 5 -12 11 -22 20 -22 22 0
7 43 -6 56 -17 8 -6 14 -8 14 -4 0 4 6 3 13 -2 20 -17 149 -12 177 6 23 15 24
15 11 -2 -13 -16 0 -17 213 -17 l226 0 0 380 0 380 -111 0 c-144 0 -137 19 9
22 l107 2 -115 6 -115 6 113 2 112 2 0 680 0 680 -1200 0 -1200 0 0 -1200z
m367 1174 c-3 -3 -12 -4 -19 -1 -8 3 -5 6 6 6 11 1 17 -2 13 -5z m60 -10 c-3
-3 -12 -4 -19 -1 -8 3 -5 6 6 6 11 1 17 -2 13 -5z m63 -34 c47 -11 137 -37
200 -56 l116 -36 36 36 c31 31 42 36 82 36 57 0 106 -24 172 -83 l50 -45 88
53 88 53 61 -14 c83 -20 207 -82 289 -146 37 -29 68 -56 68 -60 0 -3 -8 -8
-17 -10 -10 -2 116 -20 281 -41 164 -21 302 -40 307 -43 14 -9 10 -154 -7
-224 -28 -122 -145 -323 -238 -409 -14 -14 -22 -27 -17 -30 11 -7 122 -281
114 -281 -3 0 -45 38 -92 84 -47 46 -106 100 -129 122 l-44 38 6 -45 c10 -80
28 -300 24 -304 -1 -2 -24 -1 -50 2 l-46 5 -58 142 c-70 168 -203 439 -238
481 l-24 30 33 -125 c18 -69 32 -127 30 -128 -2 -2 -25 13 -52 33 -32 24 -59
57 -81 98 l-33 62 4 -48 c4 -39 2 -47 -10 -43 -8 3 -25 6 -38 6 -17 0 -34 18
-71 75 l-49 74 -5 -62 c-6 -61 -6 -62 -19 -32 -7 17 -26 54 -43 83 -36 63 -48
56 -48 -25 0 -29 -3 -53 -7 -53 -5 0 -30 39 -58 86 l-50 86 -5 -79 -5 -78 -18
40 c-10 22 -25 67 -34 100 -8 33 -17 62 -18 64 -4 3 -23 -18 -87 -93 -21 -25
-27 -27 -45 -17 -19 10 -20 15 -11 47 5 20 8 37 6 39 -2 2 -23 -12 -47 -31
-32 -25 -54 -34 -81 -34 -44 0 -177 -33 -226 -56 -53 -25 -88 -92 -90 -174
l-2 -67 -102 -142 c-57 -78 -105 -140 -107 -137 -9 8 63 204 107 292 l46 92
-79 -39 c-43 -22 -75 -34 -71 -27 4 7 55 73 113 147 73 92 102 137 95 145 -37
50 -77 119 -96 166 -30 77 -36 236 -14 331 10 38 14 74 10 80 -4 7 -3 9 3 6 5
-3 21 19 36 49 26 53 28 54 69 54 24 0 81 -9 128 -20z m561 -37 c13 -17 13
-17 -6 -3 -11 8 -22 16 -24 17 -2 2 0 3 6 3 6 0 17 -8 24 -17z m282 10 c-7 -2
-19 -2 -25 0 -7 3 -2 5 12 5 14 0 19 -2 13 -5z m180 -40 c-7 -2 -19 -2 -25 0
-7 3 -2 5 12 5 14 0 19 -2 13 -5z m-333 -31 c-8 -2 -22 -8 -31 -13 -11 -6 -22
-3 -32 9 -15 16 -13 17 31 13 26 -2 40 -6 32 -9z m566 -124 l29 -33 -32 29
c-31 28 -38 36 -30 36 2 0 16 -15 33 -32z m457 -95 c-7 -2 -19 -2 -25 0 -7 3
-2 5 12 5 14 0 19 -2 13 -5z m-1248 -428 c10 -27 36 -87 57 -133 l39 -82 -19
-25 c-21 -26 -32 -23 -32 9 0 37 -58 145 -105 195 l-46 49 32 36 c29 34 33 35
44 19 6 -10 20 -40 30 -68z m1325 1 l-21 -21 18 39 c13 27 19 34 21 21 2 -10
-6 -27 -18 -39z m-1508 4 l25 -12 -43 -87 c-54 -106 -79 -202 -70 -265 17
-113 89 -4 142 214 l27 114 54 -57 c67 -73 92 -145 73 -213 -35 -125 -255
-191 -401 -121 -136 66 -199 141 -199 237 0 68 23 109 87 154 73 51 231 69
305 36z m410 -161 c-26 -9 -49 -15 -50 -13 -2 1 1 26 7 54 6 28 11 68 11 88 1
36 2 36 39 -38 l39 -75 -46 -16z m224 -28 l52 -22 -34 -57 c-56 -93 -76 -157
-82 -264 -5 -109 0 -117 44 -65 36 42 78 136 109 244 14 48 28 89 31 92 3 3
30 -20 59 -51 38 -41 59 -74 71 -112 16 -52 16 -57 0 -100 -33 -87 -104 -126
-231 -126 -143 0 -259 51 -351 154 -49 53 -74 100 -74 137 0 52 103 154 187
185 52 20 155 12 219 -15z m734 -14 c0 -2 -12 -14 -27 -28 l-28 -24 24 28 c23
25 31 32 31 24z m-2007 -174 c-1 -49 -3 -89 -4 -90 -1 -2 -2 -7 -3 -12 0 -5
-4 -13 -8 -17 -5 -4 -8 34 -8 84 0 67 -3 92 -12 92 -7 1 -2 7 12 15 14 8 25
14 25 15 0 0 -1 -39 -2 -87z m51 45 c-10 -20 -19 -28 -22 -20 -2 7 4 22 14 33
25 27 27 24 8 -13z m-144 18 c0 -2 -8 -10 -17 -17 -16 -13 -17 -12 -4 4 13 16
21 21 21 13z m10 -19 c0 -2 -10 -12 -22 -23 l-23 -19 19 23 c18 21 26 27 26
19z m485 -102 c59 -36 156 -58 218 -50 59 8 145 44 193 80 39 30 44 31 44 7 0
-10 12 -41 26 -70 48 -96 180 -173 328 -192 69 -9 189 -5 207 6 19 11 7 -15
-25 -57 -64 -84 -155 -143 -286 -185 -74 -24 -101 -28 -205 -28 -118 1 -121 1
-194 38 -221 111 -351 252 -380 410 -6 33 -11 68 -11 79 0 18 1 18 23 3 12 -9
40 -27 62 -41z m1613 -10 c-3 -3 -9 2 -12 12 -6 14 -5 15 5 6 7 -7 10 -15 7
-18z m-117 -72 c13 -16 12 -17 -3 -4 -17 13 -22 21 -14 21 2 0 10 -8 17 -17z
m-1668 -34 c-6 -6 -9 -19 -5 -27 5 -15 4 -15 -10 -2 -16 14 -16 16 0 28 20 15
30 16 15 1z m1654 -96 c-2 -16 -4 -5 -4 22 0 28 2 40 4 28 2 -13 2 -35 0 -50z
m-1787 -8 c-30 -30 -59 -55 -65 -55 -12 0 99 110 111 110 5 0 -16 -25 -46 -55z
m-50 -10 c-7 -8 -20 -15 -29 -15 -11 1 -8 5 9 15 32 18 35 18 20 0z m1772 -35
c87 -25 177 -126 199 -223 9 -42 9 -70 -1 -128 -12 -73 -14 -75 -84 -145 -153
-152 -279 -162 -407 -32 -74 77 -139 202 -139 270 0 149 60 236 185 269 38 11
199 3 247 -11z m-1464 -152 c-1 -57 -3 -84 -5 -60 l-4 42 -45 0 c-41 0 -44 2
-44 28 0 19 3 23 9 13 7 -11 10 -11 17 0 5 8 9 19 9 24 1 6 6 9 13 8 6 -2 19
8 28 22 9 14 18 25 20 25 2 0 3 -46 2 -102z m49 30 c-2 -13 -4 -3 -4 22 0 25
2 35 4 23 2 -13 2 -33 0 -45z m1631 -58 c-2 -7 -10 1 -17 16 -12 27 -11 28 4
12 10 -9 16 -21 13 -28z m-1528 16 c0 -2 -8 -10 -17 -17 -16 -13 -17 -12 -4 4
13 16 21 21 21 13z m67 -51 c-4 -8 -12 -15 -19 -14 -10 0 -10 2 0 6 6 2 12 12
12 21 0 8 3 13 6 9 4 -3 4 -13 1 -22z m184 -15 c10 -6 19 -20 19 -30 0 -27
-35 -26 -54 2 -24 34 -5 49 35 28z m279 -34 c0 -21 -17 -33 -132 -91 -106 -54
-135 -65 -152 -57 -36 16 -86 63 -86 79 0 14 2 14 18 0 30 -27 46 -20 23 9
-33 42 -23 77 10 38 22 -26 182 -14 251 20 66 31 68 31 68 2z m220 -16 c0 -22
-4 -40 -10 -40 -11 0 -13 39 -4 64 10 26 14 19 14 -24z m-350 21 c-8 -5 -36
-12 -62 -16 -40 -6 -48 -5 -48 9 0 13 12 16 63 16 40 -1 57 -4 47 -9z m-432
-46 c-16 -29 -19 -47 -15 -93 3 -31 0 -87 -6 -123 l-11 -66 -52 23 c-72 32
-80 12 -10 -23 53 -26 56 -29 56 -65 l0 -38 -48 0 c-60 0 -130 -20 -171 -49
-17 -12 -35 -20 -40 -16 -17 10 -49 110 -56 172 l-7 59 68 61 c38 33 96 78
130 101 55 38 159 92 176 92 4 0 -2 -16 -14 -35z m1569 -17 c-3 -7 -5 -2 -5
12 0 14 2 19 5 13 2 -7 2 -19 0 -25z m-814 -10 c34 -24 34 -30 -4 -52 -28 -17
-89 -89 -89 -107 0 -4 26 19 58 51 45 44 71 62 115 76 31 10 60 15 63 11 4 -3
-10 -21 -29 -39 -63 -60 -60 -135 11 -272 20 -39 39 -75 41 -80 2 -5 -24 -7
-57 -4 -74 5 -184 57 -257 122 l-50 45 2 60 c1 75 29 136 84 186 44 39 60 40
112 3z m191 -115 c18 -38 43 -77 55 -87 12 -11 21 -22 21 -26 0 -10 -64 -38
-104 -45 -32 -7 -37 -5 -46 20 -16 42 -12 102 11 156 12 27 23 49 25 49 2 0
19 -30 38 -67z m556 -66 c0 -2 -17 -19 -37 -38 l-38 -34 34 38 c33 34 41 42
41 34z m-436 -76 c6 -9 -37 -79 -78 -126 l-26 -30 -26 30 c-14 17 -31 42 -39
56 -14 27 -14 27 28 33 23 4 60 15 82 26 47 22 52 23 59 11z m15 -67 c-6 -8
-15 -12 -18 -8 -3 4 0 9 7 11 6 3 9 10 6 15 -4 7 -2 8 5 4 9 -6 9 -11 0 -22z
m-24 -54 c-32 -33 -61 -57 -64 -54 -3 3 5 15 19 26 14 11 24 25 22 30 -1 5 1
7 6 4 5 -3 22 8 37 24 16 17 31 30 34 30 3 0 -21 -27 -54 -60z m-1413 -8 c-4
-11 -1 -13 8 -7 9 5 11 4 6 -3 -4 -7 -3 -12 2 -12 6 0 13 -8 16 -17 5 -13 0
-11 -18 6 -15 14 -26 35 -26 50 0 19 3 22 9 12 5 -8 7 -21 3 -29z m1062 -103
c-9 -10 -22 -19 -28 -18 -6 0 -6 3 2 6 6 2 10 9 6 14 -3 5 0 8 8 7 8 -2 14 7
15 22 2 47 6 55 10 22 3 -23 -1 -40 -13 -53z m-1036 -11 c-11 -22 -14 -27 -17
-45 0 -4 -6 -2 -13 5 -9 9 -6 17 12 37 29 31 34 32 18 3z"/>
<path d="M415 2270 c18 -20 17 -20 -8 -20 -44 0 -39 -16 18 -61 30 -24 54 -47
55 -51 0 -5 -16 -8 -36 -8 -51 0 -120 -19 -138 -39 -14 -16 -10 -20 64 -56 44
-21 80 -40 80 -42 0 -2 -22 -31 -49 -66 -48 -62 -94 -137 -87 -144 2 -3 32 5
67 16 79 27 81 26 68 -6 -13 -34 -18 -40 88 102 49 66 112 143 140 172 l51 52
-159 86 c-88 47 -162 85 -166 85 -3 0 2 -9 12 -20z m106 -69 c39 -23 77 -57
97 -85 l34 -46 -72 -90 c-40 -50 -76 -87 -82 -83 -6 3 -8 2 -5 -4 11 -17 -16
-38 -73 -57 -30 -11 -59 -23 -65 -27 -5 -5 -13 -9 -17 -9 -31 0 104 149 170
187 23 14 42 27 42 30 0 7 -147 73 -162 73 -7 0 18 -14 56 -30 82 -35 97 -47
72 -56 -18 -7 -176 62 -176 77 0 18 70 33 142 31 43 -1 78 1 78 6 0 5 -14 19
-32 33 -63 47 -72 51 -28 11 25 -23 40 -41 35 -42 -6 0 -37 27 -70 60 -55 55
-57 60 -34 60 14 0 54 -17 90 -39z m144 -100 c14 -23 -15 -18 -30 5 -16 25
-16 25 4 15 11 -6 22 -15 26 -20z"/>
<path d="M428 1870 c-20 -11 -39 -24 -43 -29 -4 -8 77 32 94 46 13 10 -19 -1
-51 -17z"/>
<path d="M1805 1910 c-33 -5 -72 -13 -87 -19 l-27 -10 36 -53 c31 -45 92 -167
204 -403 l24 -50 3 117 3 117 82 -50 c45 -27 85 -49 89 -49 21 0 -30 141 -72
200 -11 15 -20 30 -20 33 0 7 95 -12 140 -28 22 -8 40 -10 40 -5 0 16 -72 105
-118 147 l-47 41 50 -4 c49 -3 49 -3 10 5 -63 14 -244 20 -310 11z m306 -87
c70 -74 87 -104 48 -83 -11 7 -64 22 -116 35 -123 31 -144 49 -50 43 40 -2 61
-1 52 4 -8 5 -43 8 -77 6 l-63 -3 50 -38 c74 -57 174 -211 152 -234 -7 -6 -64
37 -58 44 13 18 -80 102 -140 127 l-36 15 35 -92 c29 -77 57 -224 39 -207 -2
3 -26 57 -52 120 -25 63 -69 159 -97 213 -28 54 -49 99 -47 101 14 12 119 24
197 23 l94 -2 69 -72z m-165 -128 c40 -23 108 -94 100 -103 -3 -2 -24 8 -49
22 -53 31 -55 31 -59 6 -2 -14 -11 0 -25 40 -12 33 -19 60 -16 60 4 0 25 -11
49 -25z"/>
<path d="M2071 1808 c2 -2 18 -14 34 -28 l30 -25 -24 28 c-14 15 -29 27 -34
27 -6 0 -8 -1 -6 -2z"/>
<path d="M706 1058 c-31 -117 38 -176 157 -134 20 8 37 10 37 5 0 -5 16 -27
36 -49 41 -45 84 -58 139 -40 43 14 116 81 97 88 -8 2 -28 -9 -45 -26 -66 -61
-110 -68 -156 -21 -17 16 -36 48 -42 70 -7 21 -16 39 -21 39 -5 0 -24 -11 -41
-24 -85 -63 -137 -37 -137 69 0 48 -14 60 -24 23z"/>
</g>
</svg>
